# xmcd CD database file
#
# Track frame offsets:
#	150
#	29473
#	60995
#	100718
#	152800
#	176847
#
# Disc length: 2936 seconds
#
# Revision: 0
# Processed by: cddbd v1.5.2PL0 Copyright (c) Steve Scherf et al.
# Submitted via: CDex 1.79
#
DISCID=430b7606
DTITLE=Regardless - Regardless
DYEAR=2016
DGENRE=Jazz
TTITLE0=Regardless - Thunders
TTITLE1=Regardless - Scofield in Mind
TTITLE2=Regardless - Escher's Waterfall
TTITLE3=Regardless - Written in Love
TTITLE4=Regardless - The Shai
TTITLE5=Regardless - Balance
EXTD=YEAR: 2016
EXTT0=
EXTT1=
EXTT2=
EXTT3=
EXTT4=
EXTT5=
PLAYORDER=
